<?xml version="1.0" encoding="UTF-8" standalone="no"?>
<svg
   width="64"
   height="64"
   version="1.1"
   id="svg22"
   sodipodi:docname="computer.svg"
   inkscape:version="1.3.2 (091e20ef0f, 2023-11-25)"
   xmlns:inkscape="http://www.inkscape.org/namespaces/inkscape"
   xmlns:sodipodi="http://sodipodi.sourceforge.net/DTD/sodipodi-0.dtd"
   xmlns:xlink="http://www.w3.org/1999/xlink"
   xmlns="http://www.w3.org/2000/svg"
   xmlns:svg="http://www.w3.org/2000/svg">
  <defs
     id="defs22" />
  <sodipodi:namedview
     id="namedview22"
     pagecolor="#ffffff"
     bordercolor="#111111"
     borderopacity="1"
     inkscape:showpageshadow="0"
     inkscape:pageopacity="0"
     inkscape:pagecheckerboard="1"
     inkscape:deskcolor="#d1d1d1"
     inkscape:zoom="12.546875"
     inkscape:cx="31.960149"
     inkscape:cy="32"
     inkscape:window-width="1920"
     inkscape:window-height="1011"
     inkscape:window-x="0"
     inkscape:window-y="0"
     inkscape:window-maximized="1"
     inkscape:current-layer="svg22" />
  <linearGradient
     id="a">
    <stop
       stop-color="#909090"
       offset="0"
       id="stop1" />
    <stop
       stop-color="#636363"
       stop-opacity="0"
       offset="1"
       id="stop2" />
  </linearGradient>
  <radialGradient
     id="c"
     cx="199.22"
     cy="60.978"
     r="62.148"
     gradientTransform="matrix(1.0119 0 0 5.0958 -134.28 -251.23)"
     gradientUnits="userSpaceOnUse">
    <stop
       stop-color="#e6e6e8"
       offset="0"
       id="stop3" />
    <stop
       stop-color="#cbccce"
       offset="1"
       id="stop4" />
  </radialGradient>
  <radialGradient
     id="d"
     cx="199.22"
     cy="60.978"
     r="62.148"
     gradientTransform="matrix(1.3103 0 0 3.6151 -193.73 -160.94)"
     gradientUnits="userSpaceOnUse">
    <stop
       stop-color="#ececef"
       offset="0"
       id="stop5" />
    <stop
       stop-color="#cbccce"
       stop-opacity="0"
       offset="1"
       id="stop6" />
  </radialGradient>
  <filter
     id="b"
     x="-0.014481094"
     y="-0.017316018"
     width="1.0289622"
     height="1.034632"
     color-interpolation-filters="sRGB">
    <feGaussianBlur
       stdDeviation=".75"
       id="feGaussianBlur6" />
  </filter>
  <linearGradient
     id="g"
     x1="174.79"
     x2="174.86"
     y1="109.47"
     y2="118.12"
     gradientUnits="userSpaceOnUse">
    <stop
       stop-color="#909090"
       offset="0"
       id="stop7" />
    <stop
       stop-color="#727272"
       stop-opacity="0"
       offset="1"
       id="stop8" />
  </linearGradient>
  <radialGradient
     id="h"
     cx="178.79"
     cy="120.7"
     r="22.055"
     gradientTransform="matrix(3.8591 0 0 .1388 -511.17 103.95)"
     gradientUnits="userSpaceOnUse"
     xlink:href="#a" />
  <filter
     id="i"
     x="-0.024968283"
     y="-0.50332482"
     width="1.0499366"
     height="2.0066496"
     color-interpolation-filters="sRGB">
    <feGaussianBlur
       stdDeviation=".328"
       id="feGaussianBlur8" />
  </filter>
  <filter
     id="f"
     x="-0.080469841"
     y="-0.2454602"
     width="1.1609397"
     height="1.4909204"
     color-interpolation-filters="sRGB">
    <feGaussianBlur
       stdDeviation="1.479"
       id="feGaussianBlur9" />
  </filter>
  <linearGradient
     id="j"
     x1="183.06"
     x2="183.06"
     y1="129.42"
     y2="127.06"
     gradientUnits="userSpaceOnUse"
     xlink:href="#a" />
  <linearGradient
     id="e"
     x1="23.844"
     x2="23.816"
     y1="17.574"
     y2="85.151"
     gradientUnits="userSpaceOnUse">
    <stop
       stop-color="#1bd2fa"
       offset="0"
       id="stop9" />
    <stop
       stop-color="#1c7ef2"
       offset="1"
       id="stop10" />
  </linearGradient>
  <g
     stroke-width="2.058"
     transform="matrix(.48966 0 0 .48209 -.956 -1.386)"
     id="g20">
    <rect
       x="5.156"
       y="8.779"
       width="124.3"
       height="103.95"
       rx="5.662"
       fill="#1a1a1a"
       filter="url(#b)"
       opacity=".887"
       id="rect10" />
    <rect
       x="5.156"
       y="8.779"
       width="124.3"
       height="103.95"
       rx="5.662"
       fill="url(#c)"
       id="rect11" />
    <rect
       x="5.156"
       y="8.779"
       width="124.3"
       height="103.95"
       rx="5.662"
       fill="url(#d)"
       id="rect12" />
    <path
       d="M10.818 8.778a5.65 5.65 0 0 0-5.662 5.662v75.664h124.3V14.44a5.65 5.65 0 0 0-5.662-5.662z"
       fill="#080808"
       id="path12" />
    <path
       d="M10.318 12.353h113.49v73.329H10.318z"
       fill="url(#e)"
       id="path13" />
    <path
       d="M5.156 106.01v1.057a5.65 5.65 0 0 0 5.662 5.662h112.97a5.65 5.65 0 0 0 5.662-5.662v-1.057a5.65 5.65 0 0 1-5.662 5.662H10.818a5.65 5.65 0 0 1-5.662-5.662z"
       fill="#afafaf"
       id="path14" />
    <g
       transform="translate(-111.48 -1.474)"
       id="g19">
      <path
         d="M194.34 114.95c-.088 3.7-.946 7.822 4.95 11.334 4.707 2.926-2.61 3.127-4.429 3.127h-32.145c-1.818 0-9.136-.201-4.43-3.127 5.898-3.513 5.04-7.635 4.951-11.334z"
         filter="url(#f)"
         id="path15" />
      <path
         d="M194.34 113.47c-.088 3.7-.946 7.822 4.95 11.334 4.707 2.926-2.61 3.127-4.429 3.127-10.492.462-21.162.762-32.145 0-1.818 0-9.136-.201-4.43-3.127 5.898-3.513 5.04-7.635 4.951-11.334z"
         fill="#e0e1e6"
         id="path16" />
      <path
         d="M194.34 113.47c-.088 3.7-.946 7.822 4.95 11.334 4.707 2.926-2.61 3.127-4.429 3.127h-32.145c-1.818 0-9.136-.201-4.43-3.127 5.898-3.513 5.04-7.635 4.951-11.334z"
         fill="url(#g)"
         id="path17" />
      <path
         d="M194.34 113.47c-.088 3.7-.946 7.822 4.95 11.334 4.707 2.926-2.61 3.127-4.429 3.127h-32.145c-1.818 0-9.136-.201-4.43-3.127 5.898-3.513 5.04-7.635 4.951-11.334z"
         fill="url(#h)"
         id="path18" />
      <ellipse
         cx="178.29"
         cy="127.15"
         rx="15.764"
         ry=".782"
         fill="#fff"
         filter="url(#i)"
         opacity=".887"
         id="ellipse18" />
      <path
         d="M194.34 113.47c-.088 3.7-.946 7.822 4.95 11.334 4.707 2.926-2.61 3.127-4.429 3.127h-32.145c-1.818 0-9.136-.201-4.43-3.127 5.898-3.513 5.04-7.635 4.951-11.334z"
         fill="url(#j)"
         id="path19" />
    </g>
  </g>
  <path
     d="M4.096 4.569V39.92h55.572V4.57zm.27.244h55.078v34.885H4.367z"
     fill-opacity=".212"
     id="path21" />
  <path
     d="M4.34 2.966c-1.535 0-2.772 1.217-2.772 2.73v36.356h60.865V5.695c0-1.512-1.236-2.73-2.772-2.73zm-.244 2.567h55.572V39.92H4.096z"
     fill="#080808"
     id="path22" />
</svg>
